<svg width="43" height="32" viewBox="0 0 43 32" fill="none" xmlns="http://www.w3.org/2000/svg">
<path d="M7.10933 16.0028L12.44 21.3335L8.88267 24.8882L0 16.0028L14.2213 1.78149L17.776 5.33616L7.10933 16.0028Z" fill="#4BDDFF"/>
<path d="M12.4406 21.3339L8.88428 24.8901L10.6662 26.672L14.2225 23.1158L12.4406 21.3339Z" fill="#4BDDFF"/>
<path d="M42.6666 16.0027L28.4426 30.2267L24.8879 26.6694L35.5546 16.0027L30.2159 10.6667L33.7733 7.11206L42.6666 16.0027Z" fill="#4BDDFF"/>
<path d="M32.0003 5.33755L28.4427 8.89258L30.2146 10.6657L33.7721 7.11064L32.0003 5.33755Z" fill="#4BDDFF"/>
<path d="M33.7734 7.11202L30.216 10.6667L26.6614 7.11202L30.216 3.55469L32 5.33869L33.7734 7.11202Z" fill="#7881FF"/>
<path d="M30.2164 3.5553L33.7727 7.11157L37.329 3.5553L33.7727 -0.000979387L30.2164 3.5553Z" fill="#3F4B8C"/>
<path d="M26.6608 7.11168L12.4395 21.333L15.9938 24.8874L30.2152 10.6661L26.6608 7.11168Z" fill="#3F4B8C"/>
<path d="M15.9947 24.8882L12.44 28.4455L8.88269 24.8882L12.44 21.3335L15.9947 24.8882Z" fill="#7881FF"/>
<path d="M5.32812 28.4432L8.8844 31.9995L12.4407 28.4432L8.8844 24.887L5.32812 28.4432Z" fill="#3F4B8C"/>
</svg>
